<?xml version="1.0" standalone="no"?><!DOCTYPE svg PUBLIC "-//W3C//DTD SVG 1.1//EN" "http://www.w3.org/Graphics/SVG/1.1/DTD/svg11.dtd"><svg t="1772090935580" class="icon" viewBox="0 0 1024 1024" version="1.1" xmlns="http://www.w3.org/2000/svg" p-id="11456" xmlns:xlink="http://www.w3.org/1999/xlink" width="200" height="200"><path d="M912 137.6v748.8H316.8V137.6h595.2z m-313.6 569.568h-249.632L348.8 854.4l249.6-0.032v-147.2z m281.568 0H630.4v147.2l249.6 0.032-0.032-147.232z m-281.568-179.2l-249.6 0.032v147.2l249.6-0.032v-147.2z m281.6 0.032l-249.6-0.032v147.2l249.6 0.032v-147.2z m-281.6-179.2h-249.632v147.168H598.4V348.8z m281.568 0H630.4v147.168h249.568V348.8zM598.4 169.568l-249.6 0.032v147.2l249.6-0.032v-147.2z m281.6 0.032l-249.6-0.032v147.2l249.6 0.032V169.6z" fill="#646E7F" p-id="11457"></path><path d="M128 256h409.6v512H128z" fill="#00C296" p-id="11458"></path><path d="M276.288 614.4l56.512-84.8 56.512 84.8h43.936l-78.944-113.344 74.048-105.984h-43.936L332.8 472.48l-51.616-77.44H237.248l73.44 106.016L232.32 614.4z" fill="#FFFEFF" p-id="11459"></path></svg>